<svg xmlns="http://www.w3.org/2000/svg" width="32" height="32" fill="none"><g clip-path="url(#a)"><circle cx="16" cy="16" r="16" fill="url(#b)"/><path fill="#F0F1D6" d="M7.5 5c-4.8 4-6 10.6667-6 13.5H1l-.5-2L1 13l1-3 2.5-4 4-3.5 5-2L20 1l4.5 2-.5.5C20.5 2.16667 12.9.5 7.5 5Z"/><path fill="#387635" d="M22.5 26.5C17.91 29.4209 12 28 9 26.5L8.5 29l.5.5 2 1 4.5 1 4-.5 3.5-1.5 3-2 3.5-3.5 1-3 1-4-.5-3.5-1-4-2.5-4-.5.5c2 2.5 2.911 7.534 2.5 10-.5 3-1.5 7-7 10.5Z"/><circle cx="16" cy="16" r="11" fill="url(#c)"/><path fill="#CD5B26" d="M19.9371 23.1208c-3.3136 1.8179-6.6825.9673-8.7002-.2l-1.1283 1.3164.3254.3673 1.3451.7782 3.0809.8873 2.7988-.1709 2.4952-.8836 2.1697-1.251 2.582-2.2655.8245-2.0292.8681-2.7202-.1952-2.4401-.5205-2.8074-1.562-2.87289-.3688.32365c1.2799 1.81464 1.6938 5.33264 1.3013 7.01854-.4774 2.051-1.3454 4.7712-5.316 6.9494Z"/><path fill="#F0F1D6" d="M10.4695 8.46407C6.88201 11.2014 5.80942 15.9746 5.72156 18.019l-.36078-.0155-.29876-1.4586.46931-2.5099.81459-2.1337 1.92792-2.8087 2.99476-2.40142 3.6698-1.28806 4.6746.56233 3.185 1.58266-.3763.34527c-2.4841-1.07061-7.9162-2.50888-11.9522.57069Z"/><path fill="#8BBA4D" d="M22.5 15.5H28L27 19h-4.5v-3.5Z"/><path fill="#0F2E29" fill-rule="evenodd" d="M25.5422 19c-1.2743 4.0571-5.0646 7-9.5422 7-5.5228 0-10-4.4772-10-10S10.4772 6 16 6c5.3552 0 9.7272 4.2094 9.9877 9.5h1.0011C26.7274 9.65693 21.9076 5 16 5 9.92487 5 5 9.92487 5 16c0 6.0751 4.92487 11 11 11 5.0351 0 9.2801-3.383 10.5859-8H25.5422Z" clip-rule="evenodd"/><path fill="#85B548" d="M13 6.00001 4.5 26 8 29l8-17.5 7.5 18 4-3-9-20.49999c-1.6-.8-4.3333-.33333-5.5 0Z"/><path fill="#F0F1D6" d="M14 7c.5-.5 2.25-1 4.5 0L18 6h-3.5l-2 .5L8 17l1.5-2c2-4.5 4.2607-7.76067 4.5-8Z"/><circle cx="16" cy="16" r="15.4" stroke="#0F2E29" stroke-width="1.2"/><path fill="#0F2E29" fill-rule="evenodd" d="M16 6c-1.1288 0-2.2139.18702-3.226.53177L13 6.00001c1.1667-.33333 3.9-.8 5.5 0l.1566.35671C17.8106 6.12419 16.9198 6 16 6Z" clip-rule="evenodd"/><path stroke="#0F2E29" d="M13 6 4.5 26M18.5 6l9 20.5"/><path fill="#85B548" d="M20.4 17h-8L10 21h12l-1.6-4Z"/><path stroke="#0F2E29" d="M18.5 17 16 11.5 13.5 17h5ZM8 29l3.5-8H20l3.5 8.5"/><path fill="#F0F1D6" d="M13 17.5c.5 1 5 .5 5.5 0H13Z"/><path stroke="#0F2E29" d="M26 15h-3.5M26 19.5h-1.5"/><ellipse cx="9.02937" cy="11.0853" fill="#F0F1D6" rx="1" ry=".5" transform="rotate(-49.537 9.02937 11.0853)"/><ellipse cx="8.49108" cy="12.5178" fill="#F0F1D6" rx=".47707" ry=".23854" transform="rotate(-49.537 8.49108 12.5178)"/></g><defs><linearGradient id="b" x1="16" x2="16" y1="0" y2="32" gradientUnits="userSpaceOnUse"><stop stop-color="#97C558"/><stop offset="1" stop-color="#7DAD40"/></linearGradient><linearGradient id="c" x1="16" x2="16" y1="5" y2="27" gradientUnits="userSpaceOnUse"><stop stop-color="#FFA956"/><stop offset="1" stop-color="#FA8C3F"/></linearGradient><clipPath id="a"><path fill="#fff" d="M0 0h32v32H0z"/></clipPath></defs></svg>
